<svg width="104" height="104" viewBox="0 0 104 104" fill="none" xmlns="http://www.w3.org/2000/svg">
<path d="M25.3498 74.1C29.0332 71.2833 33.1498 69.0625 37.6998 67.4375C42.2498 65.8125 47.0165 65 51.9998 65C56.9832 65 61.7498 65.8125 66.2998 67.4375C70.8498 69.0625 74.9665 71.2833 78.6498 74.1C81.1776 71.1389 83.1457 67.7806 84.554 64.025C85.9623 60.2694 86.6665 56.2611 86.6665 52C86.6665 42.3944 83.2901 34.2153 76.5373 27.4625C69.7846 20.7097 61.6054 17.3333 51.9998 17.3333C42.3943 17.3333 34.2151 20.7097 27.4623 27.4625C20.7096 34.2153 17.3332 42.3944 17.3332 52C17.3332 56.2611 18.0373 60.2694 19.4457 64.025C20.854 67.7806 22.8221 71.1389 25.3498 74.1ZM51.9998 56.3333C47.7387 56.3333 44.1457 54.8708 41.2207 51.9458C38.2957 49.0208 36.8332 45.4278 36.8332 41.1667C36.8332 36.9056 38.2957 33.3125 41.2207 30.3875C44.1457 27.4625 47.7387 26 51.9998 26C56.2609 26 59.854 27.4625 62.779 30.3875C65.704 33.3125 67.1665 36.9056 67.1665 41.1667C67.1665 45.4278 65.704 49.0208 62.779 51.9458C59.854 54.8708 56.2609 56.3333 51.9998 56.3333ZM51.9998 95.3333C46.0054 95.3333 40.3721 94.1958 35.0998 91.9208C29.8276 89.6458 25.2415 86.5583 21.3415 82.6583C17.4415 78.7583 14.354 74.1722 12.079 68.9C9.804 63.6278 8.6665 57.9944 8.6665 52C8.6665 46.0056 9.804 40.3722 12.079 35.1C14.354 29.8278 17.4415 25.2417 21.3415 21.3417C25.2415 17.4417 29.8276 14.3542 35.0998 12.0792C40.3721 9.80416 46.0054 8.66666 51.9998 8.66666C57.9943 8.66666 63.6276 9.80416 68.8998 12.0792C74.1721 14.3542 78.7582 17.4417 82.6582 21.3417C86.5582 25.2417 89.6457 29.8278 91.9207 35.1C94.1957 40.3722 95.3332 46.0056 95.3332 52C95.3332 57.9944 94.1957 63.6278 91.9207 68.9C89.6457 74.1722 86.5582 78.7583 82.6582 82.6583C78.7582 86.5583 74.1721 89.6458 68.8998 91.9208C63.6276 94.1958 57.9943 95.3333 51.9998 95.3333Z" fill="#1D1B20"/>
</svg>
